<?xml version="1.0" standalone="no"?>
<!DOCTYPE svg PUBLIC "-//W3C//DTD SVG 20010904//EN"
 "http://www.w3.org/TR/2001/REC-SVG-20010904/DTD/svg10.dtd">
<svg version="1.0" xmlns="http://www.w3.org/2000/svg"
 width="200.000000pt" height="200.000000pt" viewBox="0 0 200.000000 200.000000"
 preserveAspectRatio="xMidYMid meet">

<g transform="translate(0.000000,200.000000) scale(0.100000,-0.100000)"
fill="#000000" stroke="none">
<path d="M190 1000 l0 -240 122 0 c119 0 123 1 150 27 l28 27 0 213 0 213
-150 0 -150 0 0 -240z m280 22 c0 -206 0 -209 -24 -231 -21 -20 -31 -21 -132
-19 l-109 3 -3 215 c-1 118 0 220 2 227 4 10 39 13 136 13 l130 0 0 -208z"/>
<path d="M220 1090 l0 -100 120 0 120 0 0 100 0 100 -120 0 -120 0 0 -100z
m218 3 l3 -73 -101 0 -100 0 0 75 0 76 98 -3 97 -3 3 -72z"/>
<path d="M245 957 c-6 -7 -14 -17 -18 -23 -7 -13 24 -54 42 -54 15 0 51 32 51
45 0 14 -37 45 -53 45 -6 -1 -17 -6 -22 -13z"/>
<path d="M420 941 c0 -15 6 -21 21 -21 14 0 19 5 17 17 -5 26 -38 29 -38 4z"/>
<path d="M380 901 c0 -15 6 -21 21 -21 25 0 22 33 -4 38 -12 2 -17 -3 -17 -17z"/>
<path d="M310 845 c-8 -9 -8 -15 -2 -15 12 0 26 19 19 26 -2 2 -10 -2 -17 -11z"/>
<path d="M355 840 c-3 -5 -2 -10 4 -10 5 0 13 5 16 10 3 6 2 10 -4 10 -5 0
-13 -4 -16 -10z"/>
<path d="M640 1215 c0 -8 9 -15 20 -15 18 0 20 -7 20 -60 0 -47 -4 -62 -16
-67 -10 -4 -22 0 -28 9 -6 9 -18 12 -29 9 -28 -10 6 -51 44 -51 51 0 69 29 69
115 l0 75 -40 0 c-29 0 -40 -4 -40 -15z"/>
<path d="M790 1179 c-31 -13 -40 -26 -40 -66 0 -42 30 -73 70 -73 40 0 70 31
70 73 0 53 -50 85 -100 66z m58 -61 c2 -28 -1 -39 -16 -47 -15 -8 -22 -7 -29
2 -29 37 -17 90 19 85 18 -2 24 -10 26 -40z"/>
<path d="M943 1180 c-43 -18 -39 -120 6 -135 11 -3 29 -1 41 5 17 9 20 8 20
-10 0 -25 -26 -37 -50 -22 -9 5 -22 7 -29 3 -22 -14 15 -33 56 -29 49 4 63 31
63 121 0 67 0 67 -27 66 -16 -1 -35 1 -43 4 -8 3 -25 2 -37 -3z m63 -44 c8
-35 -4 -66 -26 -66 -22 0 -34 31 -26 66 4 15 14 24 26 24 12 0 22 -9 26 -24z"/>
<path d="M1114 1180 c-30 -12 -37 -27 -17 -35 10 -3 19 -1 21 4 6 17 42 13 42
-4 0 -9 -9 -15 -25 -15 -36 0 -67 -34 -56 -62 9 -26 45 -35 67 -17 11 9 18 9
26 1 15 -15 48 -16 48 -2 0 6 -4 10 -10 10 -5 0 -10 19 -10 43 0 65 -36 97
-86 77z m46 -84 c0 -7 -7 -19 -15 -26 -19 -16 -41 1 -32 24 8 20 47 21 47 2z"/>
<path d="M637 953 c-13 -12 -7 -23 13 -23 18 0 20 -7 20 -60 0 -66 -19 -89
-44 -55 -14 19 -36 13 -36 -10 0 -18 31 -35 63 -35 43 0 57 28 57 113 l0 77
-33 0 c-19 0 -37 -3 -40 -7z"/>
<path d="M1090 941 c0 -5 -7 -17 -17 -26 -11 -12 -13 -19 -5 -24 6 -3 12 -31
14 -61 3 -49 6 -55 27 -58 29 -5 52 15 28 24 -21 8 -24 89 -4 98 10 5 10 7 0
12 -7 3 -13 14 -13 25 0 10 -7 19 -15 19 -8 0 -15 -4 -15 -9z"/>
<path d="M972 911 c-7 -4 -24 -6 -38 -3 -24 4 -24 3 -24 -67 0 -64 2 -71 20
-71 17 0 20 7 20 49 0 32 5 53 15 61 23 19 33 3 37 -55 2 -38 7 -51 21 -53 15
-3 17 5 17 62 0 54 -3 67 -19 76 -24 12 -32 12 -49 1z"/>
<path d="M1187 900 c-53 -42 -25 -130 43 -130 40 0 70 31 70 73 0 42 -17 65
-55 73 -22 4 -38 0 -58 -16z m68 -55 c0 -36 -2 -40 -25 -40 -20 0 -26 6 -28
28 -5 42 5 59 30 55 20 -3 23 -9 23 -43z"/>
<path d="M740 868 c0 -24 6 -54 13 -68 14 -27 50 -38 72 -20 10 8 14 8 17 -1
2 -7 11 -10 21 -6 14 5 17 20 17 72 0 58 -2 65 -20 65 -17 0 -20 -7 -20 -39 0
-52 -8 -71 -30 -71 -22 0 -30 19 -30 71 0 32 -3 39 -20 39 -17 0 -20 -7 -20
-42z"/>
</g>
</svg>
